<mxfile host="app.diagrams.net" agent="Mozilla/5.0 (Windows NT 10.0; Win64; x64) AppleWebKit/537.36 (KHTML, like Gecko) Chrome/131.0.0.0 Safari/537.36" version="24.8.6">
  <diagram name="Page-1" id="jm5RN23EIQ_kiR9yd5k_">
    <mxGraphModel dx="1050" dy="625" grid="1" gridSize="10" guides="1" tooltips="1" connect="1" arrows="1" fold="1" page="1" pageScale="1" pageWidth="850" pageHeight="1100" math="0" shadow="0">
      <root>
        <mxCell id="0" />
        <mxCell id="1" parent="0" />
        <mxCell id="-1Q7jltSVx9NtUKoXQ9r-4" value="" style="edgeStyle=orthogonalEdgeStyle;rounded=0;orthogonalLoop=1;jettySize=auto;html=1;" edge="1" parent="1" source="-1Q7jltSVx9NtUKoXQ9r-1" target="-1Q7jltSVx9NtUKoXQ9r-3">
          <mxGeometry relative="1" as="geometry" />
        </mxCell>
        <mxCell id="-1Q7jltSVx9NtUKoXQ9r-1" value="START" style="ellipse;whiteSpace=wrap;html=1;aspect=fixed;" vertex="1" parent="1">
          <mxGeometry x="385" y="50" width="80" height="80" as="geometry" />
        </mxCell>
        <mxCell id="-1Q7jltSVx9NtUKoXQ9r-8" value="" style="edgeStyle=orthogonalEdgeStyle;rounded=0;orthogonalLoop=1;jettySize=auto;html=1;" edge="1" parent="1" source="-1Q7jltSVx9NtUKoXQ9r-3" target="-1Q7jltSVx9NtUKoXQ9r-7">
          <mxGeometry relative="1" as="geometry" />
        </mxCell>
        <mxCell id="-1Q7jltSVx9NtUKoXQ9r-3" value="NHẬP 2 SỐ A, B" style="shape=parallelogram;perimeter=parallelogramPerimeter;whiteSpace=wrap;html=1;fixedSize=1;" vertex="1" parent="1">
          <mxGeometry x="365" y="220" width="120" height="60" as="geometry" />
        </mxCell>
        <mxCell id="-1Q7jltSVx9NtUKoXQ9r-10" value="" style="edgeStyle=orthogonalEdgeStyle;rounded=0;orthogonalLoop=1;jettySize=auto;html=1;" edge="1" parent="1" source="-1Q7jltSVx9NtUKoXQ9r-7" target="-1Q7jltSVx9NtUKoXQ9r-9">
          <mxGeometry relative="1" as="geometry" />
        </mxCell>
        <mxCell id="-1Q7jltSVx9NtUKoXQ9r-12" value="" style="edgeStyle=orthogonalEdgeStyle;rounded=0;orthogonalLoop=1;jettySize=auto;html=1;" edge="1" parent="1" source="-1Q7jltSVx9NtUKoXQ9r-7" target="-1Q7jltSVx9NtUKoXQ9r-11">
          <mxGeometry relative="1" as="geometry" />
        </mxCell>
        <mxCell id="-1Q7jltSVx9NtUKoXQ9r-7" value="A - B &amp;gt; 0" style="rhombus;whiteSpace=wrap;html=1;" vertex="1" parent="1">
          <mxGeometry x="385" y="350" width="80" height="80" as="geometry" />
        </mxCell>
        <mxCell id="-1Q7jltSVx9NtUKoXQ9r-16" value="" style="edgeStyle=orthogonalEdgeStyle;rounded=0;orthogonalLoop=1;jettySize=auto;html=1;" edge="1" parent="1" source="-1Q7jltSVx9NtUKoXQ9r-9" target="-1Q7jltSVx9NtUKoXQ9r-15">
          <mxGeometry relative="1" as="geometry">
            <Array as="points">
              <mxPoint x="265" y="490" />
              <mxPoint x="265" y="490" />
            </Array>
          </mxGeometry>
        </mxCell>
        <mxCell id="-1Q7jltSVx9NtUKoXQ9r-9" value="A LÀ SỐ NHỎ" style="shape=parallelogram;perimeter=parallelogramPerimeter;whiteSpace=wrap;html=1;fixedSize=1;" vertex="1" parent="1">
          <mxGeometry x="205" y="360" width="120" height="60" as="geometry" />
        </mxCell>
        <mxCell id="-1Q7jltSVx9NtUKoXQ9r-17" value="" style="edgeStyle=orthogonalEdgeStyle;rounded=0;orthogonalLoop=1;jettySize=auto;html=1;" edge="1" parent="1" source="-1Q7jltSVx9NtUKoXQ9r-11" target="-1Q7jltSVx9NtUKoXQ9r-15">
          <mxGeometry relative="1" as="geometry">
            <Array as="points">
              <mxPoint x="585" y="510" />
              <mxPoint x="585" y="510" />
            </Array>
          </mxGeometry>
        </mxCell>
        <mxCell id="-1Q7jltSVx9NtUKoXQ9r-11" value="B LÀ SỐ NHỎ" style="shape=parallelogram;perimeter=parallelogramPerimeter;whiteSpace=wrap;html=1;fixedSize=1;" vertex="1" parent="1">
          <mxGeometry x="525" y="360" width="120" height="60" as="geometry" />
        </mxCell>
        <mxCell id="-1Q7jltSVx9NtUKoXQ9r-13" value="Đ" style="text;html=1;align=center;verticalAlign=middle;resizable=0;points=[];autosize=1;strokeColor=none;fillColor=none;" vertex="1" parent="1">
          <mxGeometry x="485" y="358" width="30" height="30" as="geometry" />
        </mxCell>
        <mxCell id="-1Q7jltSVx9NtUKoXQ9r-14" value="S" style="text;html=1;align=center;verticalAlign=middle;resizable=0;points=[];autosize=1;strokeColor=none;fillColor=none;" vertex="1" parent="1">
          <mxGeometry x="345" y="358" width="30" height="30" as="geometry" />
        </mxCell>
        <mxCell id="-1Q7jltSVx9NtUKoXQ9r-15" value="END" style="ellipse;whiteSpace=wrap;html=1;" vertex="1" parent="1">
          <mxGeometry x="385" y="510" width="80" height="80" as="geometry" />
        </mxCell>
      </root>
    </mxGraphModel>
  </diagram>
</mxfile>
